<svg width="256" height="256" viewBox="0 0 256 256" fill="none" xmlns="http://www.w3.org/2000/svg">
<rect width="256" height="256" fill="#EEEEEE"/>
<path d="M194.818 82.0625C194.818 70.4816 202.757 62.375 213.909 62.375C225.061 62.375 233 70.4816 233 82.0625L233 213.313L213.909 233L86.6364 233C75.4845 233 67.5455 224.893 67.5455 213.312C67.5455 201.732 75.573 193.625 86.7248 193.625L194.818 193.625L194.818 82.0625Z" fill="#1C63EC"/>
<path d="M188.455 42.6875C188.455 54.2684 180.515 62.375 169.364 62.375L61.1818 62.375L61.1818 173.938C61.1818 185.518 53.2428 193.625 42.0909 193.625C30.9391 193.625 23 185.518 23 173.938L23 42.6875L42.0909 23L169.364 23C180.515 23 188.455 31.1066 188.455 42.6875Z" fill="#1C63EC"/>
</svg>
