<svg width="32" height="32" viewBox="0 0 32 32" fill="none" xmlns="http://www.w3.org/2000/svg">
<path d="M26.1818 9C26.1818 7.23529 27.3916 6 29.0909 6C30.7902 6 32 7.23529 32 9L32 29L29.0909 32L9.69697 32C7.99764 32 6.78788 30.7647 6.78788 29C6.78788 27.2353 8.01112 26 9.71045 26L26.1818 26L26.1818 9Z" fill="#1C63EC"/>
<path d="M25.2121 3C25.2121 4.76471 24.0024 6 22.303 6L5.81818 6L5.81818 23C5.81818 24.7647 4.60842 26 2.90909 26C1.20976 26 0 24.7647 0 23L0 3L2.90909 0L22.303 0C24.0024 0 25.2121 1.23529 25.2121 3Z" fill="#1C63EC"/>
</svg>
